<svg xmlns="http://www.w3.org/2000/svg" id="Layer_2" data-name="Layer 2" version="1.1" viewBox="0 0 485 485"><defs><clipPath id="clippath"><circle cx="242.3" cy="242.3" r="242.3" fill="none" stroke-width="0"/></clipPath><style>.cls-1{fill:#3f3faa;stroke-width:0}</style></defs><g clip-path="url(#clippath)"><path d="m100 450 409-229v264l-394 7-15-42z" class="cls-1"/><path fill="#fdbc64" stroke-width="0" d="M377 41 34 366l18 54 39 10 392-219 31-36-62-141-75 7z"/><path fill="#ff957d" stroke-width="0" d="M467 152 168 280 91 430l392-219 51-55-23-25-44 21z"/><path fill="#8eedd7" stroke-width="0" d="M359 35 25 351l-163-194 296-258L364-1l-5 36z"/><path fill="#51b9a3" stroke-width="0" d="M181-48-68 55l-11 353 104-57L191-15l-10-33z"/><path d="M239-38 117 254l6 6L362 35v-82l-123 9z" class="cls-1"/></g></svg>