<?xml version="1.0" encoding="UTF-8"?>
<svg id="Layer_2" xmlns="http://www.w3.org/2000/svg" version="1.1" viewBox="0 0 1028.5 206.8">
  <!-- Generator: Adobe Illustrator 29.3.1, SVG Export Plug-In . SVG Version: 2.1.0 Build 151)  -->
  <defs>
    <style>
      .st0 {
        fill: none;
      }

      .st1 {
        fill: #3f3faa;
      }

      .st2 {
        fill: #8eedd7;
      }

      .st3 {
        fill: #fff;
      }

      .st4 {
        fill: #51b9a3;
      }

      .st5 {
        display: none;
        fill: #f7dd87;
      }

      .st6 {
        fill: #fdbc64;
      }

      .st7 {
        fill: #ff957d;
      }
    </style>
  </defs>
  <circle class="st5" cx="-362.5" cy="360.5" r="242.3"/>
  <g>
    <path class="st0" d="M154.6,13.5v1.2L52.3,110.8l-.2-.2-41.2,39c1.1,2.2,2.3,4.4,3.5,6.5L160.9,17.4c-2-1.4-4.1-2.7-6.3-3.9h0Z"/>
    <path class="st0" d="M38.9,183.4l-1.4-.4c2.9,2.4,5.9,4.6,9,6.6l160.3-89.6c-.1-3.5-.4-6.9-.8-10.3L38.9,183.4Z"/>
    <path class="st1" d="M103.4,206.8c57.1,0,103.4-46.3,103.4-103.4s0-2.2,0-3.3L46.5,189.7c16.3,10.8,35.9,17.1,56.9,17.1Z"/>
    <path class="st6" d="M71.7,119.3l127.5-54.6c-7.8-19.3-21.3-35.8-38.4-47.2L14.4,156c6.1,10.3,13.9,19.5,23.1,27.1l1.4.4,32.9-64.1h-.1Z"/>
    <path class="st7" d="M38.9,183.4l167-93.5c-1.1-8.8-3.4-17.3-6.6-25.2l-127.5,54.6-32.9,64.1h0Z"/>
    <path class="st2" d="M49.7,108.4L95.1.3c-6.1.5-12.1,1.5-17.9,3L10.8,149.4h0l41.2-39-2.4-2.2v.2Z"/>
    <path class="st4" d="M0,103.4c0,16.5,3.9,32.2,10.8,46L77.2,3.3C32.8,14.9,0,55.3,0,103.4Z"/>
    <path class="st1" d="M52,110.5l.2.2L154.6,14.8v-1.2C139.5,4.9,122,0,103.4,0s-5.5.1-8.3.3l-45.4,108,2.4,2.2h0Z"/>
  </g>
  <g>
    <path class="st3" d="M354.6,163.3c-6,4.1-12.5,7.3-19.5,9.6s-14.4,3.4-22.1,3.4-19.4-1.9-28.3-5.7-16.6-9-23.2-15.6-11.8-14.3-15.6-23.1-5.7-18.3-5.7-28.4,1.9-19.6,5.7-28.5,9-16.6,15.6-23.2c6.6-6.6,14.3-11.8,23.2-15.6,8.9-3.8,18.3-5.7,28.3-5.7s12.3.8,18.2,2.4c5.9,1.6,11.4,3.8,16.6,6.6,1.1.7,1.8,1.7,2.2,3,.4,1.3.3,2.6-.4,3.8l-9.2,16.2c-.8,1.1-1.9,1.8-3.2,2.1-1.3.3-2.7.2-4.2-.5-2.9-1.5-6.1-2.6-9.5-3.4-3.4-.8-6.9-1.2-10.5-1.2-6.3,0-12,1.1-17.3,3.4-5.3,2.3-9.9,5.4-13.8,9.3s-7,8.6-9.2,14-3.3,11.2-3.3,17.3,1.1,12.1,3.3,17.4c2.2,5.3,5.3,9.9,9.2,13.8,3.9,3.9,8.5,6.9,13.8,9.2s11,3.4,17.3,3.4,3.4,0,5-.2c1.6-.1,3.1-.4,4.6-.8h.2c1.9-.8,3.1-1.8,3.7-3s.9-3.1.9-5.6v-7.2c0-1.5-.4-2.7-1.2-3.6-.8-.9-1.9-1.4-3.2-1.4h-13.6c-1.5,0-2.7-.5-3.6-1.4s-1.4-2.1-1.4-3.6v-19c0-1.5.5-2.7,1.4-3.6s2.1-1.4,3.6-1.4h42c1.3,0,2.5.5,3.5,1.4s1.5,2.1,1.5,3.6v58c0,1.7-.6,3-1.8,3.8h0Z"/>
    <path class="st3" d="M382.4,103.5c0-10.1,1.9-19.6,5.7-28.5,3.8-8.9,9-16.6,15.6-23.2,6.6-6.6,14.3-11.8,23.2-15.6,8.9-3.8,18.3-5.7,28.3-5.7s19.6,1.9,28.5,5.7,16.6,9,23.2,15.6c6.6,6.6,11.8,14.3,15.6,23.2s5.7,18.4,5.7,28.5-1.9,19.6-5.7,28.4c-3.8,8.8-9,16.5-15.6,23.1s-14.3,11.8-23.2,15.6c-8.9,3.8-18.4,5.7-28.5,5.7s-19.4-1.9-28.3-5.7-16.6-9-23.2-15.6-11.8-14.3-15.6-23.1c-3.8-8.8-5.7-18.3-5.7-28.4h0ZM411.6,103.5c0,6.3,1.1,12.1,3.3,17.4,2.2,5.3,5.3,9.9,9.2,13.8,3.9,3.9,8.5,6.9,13.8,9.2s11,3.4,17.3,3.4,12.1-1.1,17.4-3.4c5.3-2.3,10-5.3,13.9-9.2s7-8.5,9.3-13.8,3.4-11.1,3.4-17.4-1.1-11.9-3.4-17.3c-2.3-5.4-5.4-10.1-9.3-14s-8.6-7-13.9-9.3-11.1-3.4-17.4-3.4-12,1.1-17.3,3.4c-5.3,2.3-9.9,5.4-13.8,9.3s-7,8.6-9.2,14-3.3,11.2-3.3,17.3Z"/>
    <path class="st3" d="M578.2,32.3c1.5,0,2.7.5,3.6,1.4.9.9,1.4,2.2,1.4,3.8v102.6c0,2,.4,3.4,1.1,4.1.7.7,1.7,1.1,2.9,1.1h52.4c1.3,0,2.5.5,3.5,1.4s1.5,2.1,1.5,3.6v19c0,1.5-.5,2.7-1.5,3.6-1,.9-2.2,1.4-3.5,1.4h-80.4c-1.7,0-3-.5-3.8-1.5s-1.2-2.2-1.2-3.5V37.5c0-1.6.5-2.9,1.4-3.8.9-.9,2.1-1.4,3.6-1.4h19Z"/>
    <path class="st3" d="M685.6,32.3c1.5,0,2.7.5,3.6,1.4.9.9,1.4,2.2,1.4,3.8v70c0,6.9.3,12.9.9,17.9.6,5,1.8,9.1,3.5,12.4s4.1,5.7,7.2,7.2c3.1,1.5,7,2.3,11.8,2.3s8.9-.8,12-2.3,5.5-3.9,7.2-7.2,2.9-7.4,3.5-12.4c.6-5,.9-11,.9-17.9V37.5c0-1.6.5-2.9,1.4-3.8.9-.9,2.1-1.4,3.6-1.4h19c1.5,0,2.7.5,3.6,1.4.9.9,1.4,2.2,1.4,3.8v80c0,19.3-4.2,34-12.6,43.9-8.4,9.9-21.7,14.9-40,14.9s-31.4-5-39.8-15c-8.4-10-12.6-24.6-12.6-43.8V37.5c0-1.6.5-2.9,1.4-3.8.9-.9,2.1-1.4,3.6-1.4h19,0Z"/>
    <path class="st3" d="M828.6,139.5c-2.7.9-4,2.5-4,4.6v25.2c0,1.3-.5,2.5-1.4,3.5s-2.1,1.5-3.6,1.5h-19c-1.5,0-2.7-.5-3.6-1.5-.9-1-1.4-2.2-1.4-3.5V37.5c0-1.6.5-2.9,1.4-3.8.9-.9,2.1-1.4,3.6-1.4h33.2c10,0,18.9.9,26.8,2.6,7.9,1.7,14.5,4.6,19.8,8.6,5.3,4,9.4,9.3,12.2,15.8,2.8,6.5,4.2,14.6,4.2,24.2s-1.9,14.4-5.8,21.3c-3.9,6.9-8.8,12.8-14.8,17.9-2.1,1.7-3.5,3.3-4,4.7-.5,1.4-.3,3.4.8,6.1l16.8,34.6c.7,1.6.9,3,.6,4.3-.3,1.3-1.5,1.9-3.8,1.9h-21.2c-1.7,0-3-.3-3.8-1s-1.4-1.3-1.8-2l-17.6-31.6c-.3-.7-1-1.1-2.2-1.4-1.2-.3-2.5-.3-4-.2-1.3.1-2.5.3-3.5.4-1,.1-2.3.5-3.9,1ZM829,61.5c-1.2,0-2.2.4-3.1,1.3-.9.9-1.3,1.9-1.3,3.1v39.6c0,1.5.4,2.7,1.1,3.6.7.9,1.8,1.4,3.1,1.4h5c4.9,0,9.5-.6,13.6-1.9s7.7-3,10.7-5.3,5.3-4.9,7-7.8,2.5-6.1,2.5-9.6-.8-9-2.5-12.2-4-5.7-7-7.5-6.6-3-10.7-3.7c-4.1-.7-8.7-1-13.6-1,0,0-4.8,0-4.8,0Z"/>
    <path class="st3" d="M1006.8,174.3c-1.3,0-2.8-.1-4.5-.3s-2.8-1.2-3.5-3.1l-7.2-20.4c-.5-1.5-1.2-2.6-2.1-3.5-.9-.9-2-1.3-3.5-1.3h-31.6c-1.2,0-2.2.5-3.1,1.4-.9.9-1.4,1.8-1.7,2.6l-7.2,21.2c-.7,1.9-1.8,2.9-3.5,3.1-1.7.2-3.2.3-4.5.3h-18.2c-1.3,0-2.3-.7-2.9-2-.6-1.3-.6-2.7,0-4.2l46.6-132.6c.3-.8.9-1.5,2-2.2s2.1-1,3.2-1h11.4c1.1,0,2.1.3,3.1.9s1.6,1.3,1.9,2.1l46.6,132.8c.5,1.3.6,2.7.2,4.1-.4,1.4-1.5,2.1-3.2,2.1h-18.3ZM963.4,112.7c-.3.9-.2,1.8.2,2.6.4.8,1.7,1.2,4,1.2h7.4c1.9,0,2.9-.4,3.1-1.1.2-.7.2-1.5,0-2.3l-4.6-13.4c-.5-1.5-1.5-2.1-2.9-1.8-1.4.3-2.3,1-2.7,2.2l-4.4,12.6h0Z"/>
  </g>
</svg>