<svg xmlns="http://www.w3.org/2000/svg" id="Layer_2" data-name="Layer 2" version="1.1" viewBox="0 0 1029 207"><defs><style>.cls-1{fill:#3f3faa;stroke-width:0}</style></defs><path d="M155 14v1L52 111l-41 39 3 6L161 17l-6-3ZM39 183h-2l10 7 160-90-1-10-167 93Z" style="fill:none;stroke-width:0"/><path d="M103 207c58 0 104-46 104-104v-3L47 190c16 10 35 17 56 17Z" class="cls-1"/><path d="m72 119 127-54c-8-20-21-36-38-48L14 157c7 10 14 20 24 27h1l33-64Z" style="fill:#fdbc64;stroke-width:0"/><path d="m39 183 167-93c-1-9-3-17-7-25L72 119l-33 64Z" style="fill:#ff957d;stroke-width:0"/><path d="M50 108 95 0 77 3 11 149l41-39-2-2Z" style="fill:#8eedd7;stroke-width:0"/><path d="M0 103c0 17 4 33 11 46L77 3C33 15 0 55 0 103Z" style="fill:#51b9a3;stroke-width:0"/><path d="m52 111 103-96v-1c-15-9-33-14-52-14h-8L50 108l2 2Z" class="cls-1"/><path d="M355 163a77 77 0 0 1-42 13c-8 0-19-2-28-5a73 73 0 0 1 28-140c10 0 12 0 18 2l17 7c1 0 2 1 2 3v3l-10 17-3 2-4-1-9-3a46 46 0 0 0-28 2c-6 2-10 5-14 9s-7 9-9 14-4 11-4 18a43 43 0 0 0 27 40c5 2 11 3 17 3h5l5-1c2 0 3-1 4-3v-12l-1-4-3-1h-14l-3-2-2-3v-19l2-4 3-1h42l4 1 1 4v58l-1 3Zm27-59a72 72 0 0 1 22-52 73 73 0 1 1-22 52Zm30 0c0 6 1 12 3 17a42 42 0 0 0 23 23c5 2 11 3 17 3a44 44 0 0 0 32-12 44 44 0 0 0-63-63c-4 4-7 9-9 14s-3 11-3 18Zm166-72 4 2 1 3v103l1 4 3 1h53l3 2 2 3v19l-2 4-3 1h-81l-4-1-1-4V38l2-4 3-2h19Zm108 0 3 2 2 3v71l1 17c0 5 1 10 3 13s4 6 7 7c3 2 7 2 12 2l12-2c3-1 6-4 7-7 2-3 3-8 4-13l1-17V38l1-4 4-2h19l3 2 2 4v80c0 19-5 34-13 43-8 10-22 15-40 15s-31-5-40-15c-8-10-12-24-12-43V38l1-4 4-2h19Zm143 108c-3 0-4 2-4 4v25l-2 4-3 1h-19l-4-1-1-4V38l1-4 4-2h33c10 0 19 1 27 3s14 5 19 9c6 4 10 9 13 15 2 7 4 15 4 25s-2 14-6 21-9 13-15 18l-4 4 1 7 17 34v4c0 2-1 2-3 2h-22l-3-1-2-2-18-31-2-2h-4l-3 1-4 1Zm0-78-3 1-1 3v39l1 4 3 1h5c5 1 9 0 13-1 5-2 8-3 11-6l7-8c2-2 3-6 3-9 0-5-1-9-3-12l-7-8c-3-2-6-3-11-3l-13-1h-5Zm178 112h-5c-1 0-3-1-3-3l-7-20-3-4-3-1h-32l-3 1-1 3-8 21c0 2-1 3-3 3h-23c-1 0-2 0-3-2v-4l47-132 2-3 3-1h11l4 1 1 2 47 133v4c0 2-1 2-3 2h-18Zm-44-61 1 2 4 1h7c2 1 3 0 3-1v-2l-4-13c-1-2-2-2-3-2-2 0-3 1-3 2l-5 13Z" style="fill:#000;stroke-width:0"/></svg>