<?xml version="1.0" encoding="utf-8"?>
<!-- Generator: Adobe Illustrator 28.1.0, SVG Export Plug-In . SVG Version: 6.00 Build 0)  -->
<svg version="1.1" id="Layer_1" xmlns="http://www.w3.org/2000/svg" xmlns:xlink="http://www.w3.org/1999/xlink" x="0px" y="0px"
	 viewBox="0 0 1926.5 309.5" style="enable-background:new 0 0 1926.5 309.5;" xml:space="preserve">
<style type="text/css">
	.st0{fill:#3F3FAA;}
	.st1{fill:#FF957D;}
</style>
<g>
	<path class="st0" d="M218.7,252.5c6.9-2.9,14.1-5.1,20.6-8.7c31.9-18,49.3-45.3,51-82.2c0.1-2.4,0.1-4.7,0.3-7.1
		c0.4-5.5,4.8-9.8,9.8-9.5c4.8,0.2,8.9,4.6,8.9,9.9c0.2,23.4-4.8,45.6-15.1,66.6c-35.9,73.7-120,107-196.4,77.1
		c-39.4-15.4-67.7-43-85.1-81.6c-2.6-5.8-1.8-10.3,2-13.2c5.2-4,12-2,15,4.8c8,17.9,19,33.7,33.7,46.8c24.2,21.6,52.5,33.6,85,35
		c1.8,0.1,3.6,0,5.6,0c1.1-6.3,2-12.3,3.3-18.2c4.6-20.4,17.2-33.5,37.1-39.3c18-5.3,32.7-14.9,43.9-30.1c1.4-1.9,4.7-2.4,7.2-3.6
		c0.7,2.5,2.3,5,2.1,7.4c-1.1,13.6-9.2,23.2-18.6,32c-4,3.8-8,7.6-11.9,11.3C217.6,250.7,218.1,251.6,218.7,252.5z"/>
	<path class="st1" d="M92.7,57.2c-3.8,0.6-6.1,0.8-8.2,1.4C47.8,70.3,21.2,104.8,19,143.5c-0.2,3.8-0.5,7.6-0.8,11.4
		c-0.4,5.2-4.2,8.9-9.1,8.9c-5.1,0-9-3.9-9.1-9.4c-0.2-22.6,4.3-44.3,14.1-64.6C37.5,41.4,75.4,11.1,128.3,2.4
		c58.5-9.6,107.9,9.1,146,54.8c8.8,10.6,14.9,23.4,21.9,35.4c2.5,4.2,2.2,8.9-1.9,12.3c-3.2,2.7-7.1,3.2-10.5,0.6
		c-1.9-1.4-3.5-3.7-4.5-5.9c-11.7-25.5-29.2-46-53-60.9c-20.4-12.7-42.7-19.3-66.6-20.4c-4.2-0.2-5.7,1.1-6,5.3
		c-0.4,5-1.4,10-2.5,14.9c-4.6,19.1-16.9,31.5-35.3,37c-18.5,5.6-33.8,15.1-45.3,30.8c-1.3,1.7-4.1,2.3-6.3,3.5
		c-0.9-2.2-2.5-4.4-2.4-6.5c0.3-11.8,6.8-20.7,14.5-28.8c4-4.2,8.5-7.8,12.7-11.8C90.2,61.6,90.9,60,92.7,57.2z"/>
</g>
<g>
	<path d="M360.9,170.5c0-41.4,31.6-71.6,74.2-71.6c21.6,0,40.4,7.4,53.2,21.8l-13,12.6c-10.8-11.4-24-16.6-39.4-16.6
		c-31.6,0-55,22.8-55,53.8c0,31,23.4,53.8,55,53.8c15.4,0,28.6-5.4,39.4-16.8l13,12.6c-12.8,14.4-31.6,22-53.4,22
		C392.5,242.1,360.9,211.9,360.9,170.5z"/>
	<path d="M616.7,205.5h-74.4l-15.4,35h-20.6l63.4-140h19.8l63.6,140h-21L616.7,205.5z M609.7,189.5l-30.2-68.6l-30.2,68.6H609.7z"/>
	<path d="M781.5,240.5l-30.2-43c-2.8,0.2-5.8,0.4-8.8,0.4h-34.6v42.6h-20v-140h54.6c36.4,0,58.4,18.4,58.4,48.8
		c0,21.6-11.2,37.2-30.8,44.2l33.2,47H781.5z M780.9,149.3c0-20-13.4-31.4-39-31.4h-34v63h34C767.5,180.9,780.9,169.3,780.9,149.3z"
		/>
	<path d="M948.9,223.1v17.4H847.3v-140h98.8v17.4h-78.8v43h70.2v17h-70.2v45.2H948.9z"/>
	<path d="M1052.1,170.5c0-40.6,31-70.8,72.2-70.8c19,0,36.4,6.2,48.6,18.6l-4.2,4.4c-12.4-12-27.6-16.8-44.2-16.8
		c-37.4,0-65.6,28-65.6,64.6s28.2,64.6,65.6,64.6c16.6,0,31.8-5,44.2-17l4.2,4.4c-12.2,12.6-29.6,18.8-48.6,18.8
		C1083.1,241.3,1052.1,211.1,1052.1,170.5z"/>
	<path d="M1317.5,234.3v6.2h-94.6v-140h91.8v6.2h-85v59.6h76v6.2h-76v61.8H1317.5z"/>
	<path d="M1482.3,100.5v140h-5.6l-99.4-127.6v127.6h-6.8v-140h5.6l99.4,127.6V100.5H1482.3z"/>
	<path d="M1574.1,106.7h-51.4v-6.2h109.4v6.2h-51.4v133.8h-6.6V106.7z"/>
	<path d="M1767.1,234.3v6.2h-94.6v-140h91.8v6.2h-85v59.6h76v6.2h-76v61.8H1767.1z"/>
	<path d="M1918.5,240.5l-34.6-48.2c-4.6,0.8-9.8,1.2-15.2,1.2h-41.8v47h-6.8v-140h48.6c34.8,0,55.6,17.2,55.6,46.4
		c0,22.6-12.2,38-33.6,43.8l35.8,49.8H1918.5z M1869.1,187.3c31.4,0,48.6-14.6,48.6-40.4c0-25.6-17.2-40.2-48.6-40.2h-42.2v80.6
		H1869.1z"/>
</g>
</svg>
